<mxfile host="app.diagrams.net" agent="Mozilla/5.0 (Windows NT 10.0; Win64; x64) AppleWebKit/537.36 (KHTML, like Gecko) Chrome/133.0.0.0 Safari/537.36" version="26.0.11">
  <diagram name="페이지-1" id="9h0nezKyuYMbp8WOxAF_">
    <mxGraphModel dx="2074" dy="1146" grid="1" gridSize="10" guides="1" tooltips="1" connect="1" arrows="1" fold="1" page="1" pageScale="1" pageWidth="827" pageHeight="1169" math="0" shadow="0">
      <root>
        <mxCell id="0" />
        <mxCell id="1" parent="0" />
        <mxCell id="FPiGIrVevBW5U4w38yxV-1" value="" style="shape=table;startSize=0;container=1;collapsible=0;childLayout=tableLayout;fontSize=16;" parent="1" vertex="1">
          <mxGeometry x="40" y="120" width="600" height="40" as="geometry" />
        </mxCell>
        <mxCell id="FPiGIrVevBW5U4w38yxV-2" value="" style="shape=tableRow;horizontal=0;startSize=0;swimlaneHead=0;swimlaneBody=0;strokeColor=inherit;top=0;left=0;bottom=0;right=0;collapsible=0;dropTarget=0;fillColor=none;points=[[0,0.5],[1,0.5]];portConstraint=eastwest;fontSize=16;" parent="FPiGIrVevBW5U4w38yxV-1" vertex="1">
          <mxGeometry width="600" height="40" as="geometry" />
        </mxCell>
        <mxCell id="FPiGIrVevBW5U4w38yxV-3" value="&lt;b&gt;&lt;u&gt;학과명&lt;/u&gt;&lt;/b&gt;" style="shape=partialRectangle;html=1;whiteSpace=wrap;connectable=0;strokeColor=inherit;overflow=hidden;fillColor=none;top=0;left=0;bottom=0;right=0;pointerEvents=1;fontSize=16;" parent="FPiGIrVevBW5U4w38yxV-2" vertex="1">
          <mxGeometry width="120" height="40" as="geometry">
            <mxRectangle width="120" height="40" as="alternateBounds" />
          </mxGeometry>
        </mxCell>
        <mxCell id="FPiGIrVevBW5U4w38yxV-4" value="전화번호" style="shape=partialRectangle;html=1;whiteSpace=wrap;connectable=0;strokeColor=inherit;overflow=hidden;fillColor=none;top=0;left=0;bottom=0;right=0;pointerEvents=1;fontSize=16;" parent="FPiGIrVevBW5U4w38yxV-2" vertex="1">
          <mxGeometry x="120" width="120" height="40" as="geometry">
            <mxRectangle width="120" height="40" as="alternateBounds" />
          </mxGeometry>
        </mxCell>
        <mxCell id="FPiGIrVevBW5U4w38yxV-5" value="&lt;div&gt;사무실 위치&lt;/div&gt;" style="shape=partialRectangle;html=1;whiteSpace=wrap;connectable=0;strokeColor=inherit;overflow=hidden;fillColor=none;top=0;left=0;bottom=0;right=0;pointerEvents=1;fontSize=16;" parent="FPiGIrVevBW5U4w38yxV-2" vertex="1">
          <mxGeometry x="240" width="120" height="40" as="geometry">
            <mxRectangle width="120" height="40" as="alternateBounds" />
          </mxGeometry>
        </mxCell>
        <mxCell id="FPiGIrVevBW5U4w38yxV-47" value="교수번호(FK)" style="shape=partialRectangle;html=1;whiteSpace=wrap;connectable=0;strokeColor=inherit;overflow=hidden;fillColor=none;top=0;left=0;bottom=0;right=0;pointerEvents=1;fontSize=16;" parent="FPiGIrVevBW5U4w38yxV-2" vertex="1">
          <mxGeometry x="360" width="120" height="40" as="geometry">
            <mxRectangle width="120" height="40" as="alternateBounds" />
          </mxGeometry>
        </mxCell>
        <mxCell id="FPiGIrVevBW5U4w38yxV-48" value="임명일자" style="shape=partialRectangle;html=1;whiteSpace=wrap;connectable=0;strokeColor=inherit;overflow=hidden;fillColor=none;top=0;left=0;bottom=0;right=0;pointerEvents=1;fontSize=16;" parent="FPiGIrVevBW5U4w38yxV-2" vertex="1">
          <mxGeometry x="480" width="120" height="40" as="geometry">
            <mxRectangle width="120" height="40" as="alternateBounds" />
          </mxGeometry>
        </mxCell>
        <mxCell id="FPiGIrVevBW5U4w38yxV-50" value="" style="shape=table;startSize=0;container=1;collapsible=0;childLayout=tableLayout;fontSize=16;" parent="1" vertex="1">
          <mxGeometry x="40" y="200" width="480" height="40" as="geometry" />
        </mxCell>
        <mxCell id="FPiGIrVevBW5U4w38yxV-51" value="" style="shape=tableRow;horizontal=0;startSize=0;swimlaneHead=0;swimlaneBody=0;strokeColor=inherit;top=0;left=0;bottom=0;right=0;collapsible=0;dropTarget=0;fillColor=none;points=[[0,0.5],[1,0.5]];portConstraint=eastwest;fontSize=16;" parent="FPiGIrVevBW5U4w38yxV-50" vertex="1">
          <mxGeometry width="480" height="40" as="geometry" />
        </mxCell>
        <mxCell id="FPiGIrVevBW5U4w38yxV-52" value="&lt;b&gt;&lt;u&gt;교수번호&lt;/u&gt;&lt;/b&gt;" style="shape=partialRectangle;html=1;whiteSpace=wrap;connectable=0;strokeColor=inherit;overflow=hidden;fillColor=none;top=0;left=0;bottom=0;right=0;pointerEvents=1;fontSize=16;" parent="FPiGIrVevBW5U4w38yxV-51" vertex="1">
          <mxGeometry width="120" height="40" as="geometry">
            <mxRectangle width="120" height="40" as="alternateBounds" />
          </mxGeometry>
        </mxCell>
        <mxCell id="FPiGIrVevBW5U4w38yxV-90" value="이름" style="shape=partialRectangle;html=1;whiteSpace=wrap;connectable=0;strokeColor=inherit;overflow=hidden;fillColor=none;top=0;left=0;bottom=0;right=0;pointerEvents=1;fontSize=16;" parent="FPiGIrVevBW5U4w38yxV-51" vertex="1">
          <mxGeometry x="120" width="120" height="40" as="geometry">
            <mxRectangle width="120" height="40" as="alternateBounds" />
          </mxGeometry>
        </mxCell>
        <mxCell id="FPiGIrVevBW5U4w38yxV-53" value="전공분야" style="shape=partialRectangle;html=1;whiteSpace=wrap;connectable=0;strokeColor=inherit;overflow=hidden;fillColor=none;top=0;left=0;bottom=0;right=0;pointerEvents=1;fontSize=16;" parent="FPiGIrVevBW5U4w38yxV-51" vertex="1">
          <mxGeometry x="240" width="120" height="40" as="geometry">
            <mxRectangle width="120" height="40" as="alternateBounds" />
          </mxGeometry>
        </mxCell>
        <mxCell id="FPiGIrVevBW5U4w38yxV-113" value="보유기술" style="shape=partialRectangle;html=1;whiteSpace=wrap;connectable=0;strokeColor=inherit;overflow=hidden;fillColor=none;top=0;left=0;bottom=0;right=0;pointerEvents=1;fontSize=16;" parent="FPiGIrVevBW5U4w38yxV-51" vertex="1">
          <mxGeometry x="360" width="120" height="40" as="geometry">
            <mxRectangle width="120" height="40" as="alternateBounds" />
          </mxGeometry>
        </mxCell>
        <mxCell id="FPiGIrVevBW5U4w38yxV-64" value="" style="shape=table;startSize=0;container=1;collapsible=0;childLayout=tableLayout;fontSize=16;" parent="1" vertex="1">
          <mxGeometry x="40" y="360" width="480" height="40" as="geometry" />
        </mxCell>
        <mxCell id="FPiGIrVevBW5U4w38yxV-65" value="" style="shape=tableRow;horizontal=0;startSize=0;swimlaneHead=0;swimlaneBody=0;strokeColor=inherit;top=0;left=0;bottom=0;right=0;collapsible=0;dropTarget=0;fillColor=none;points=[[0,0.5],[1,0.5]];portConstraint=eastwest;fontSize=16;" parent="FPiGIrVevBW5U4w38yxV-64" vertex="1">
          <mxGeometry width="480" height="40" as="geometry" />
        </mxCell>
        <mxCell id="FPiGIrVevBW5U4w38yxV-66" value="&lt;b&gt;&lt;u&gt;과목번호&lt;/u&gt;&lt;/b&gt;" style="shape=partialRectangle;html=1;whiteSpace=wrap;connectable=0;strokeColor=inherit;overflow=hidden;fillColor=none;top=0;left=0;bottom=0;right=0;pointerEvents=1;fontSize=16;" parent="FPiGIrVevBW5U4w38yxV-65" vertex="1">
          <mxGeometry width="120" height="40" as="geometry">
            <mxRectangle width="120" height="40" as="alternateBounds" />
          </mxGeometry>
        </mxCell>
        <mxCell id="FPiGIrVevBW5U4w38yxV-67" value="과목명" style="shape=partialRectangle;html=1;whiteSpace=wrap;connectable=0;strokeColor=inherit;overflow=hidden;fillColor=none;top=0;left=0;bottom=0;right=0;pointerEvents=1;fontSize=16;" parent="FPiGIrVevBW5U4w38yxV-65" vertex="1">
          <mxGeometry x="120" width="120" height="40" as="geometry">
            <mxRectangle width="120" height="40" as="alternateBounds" />
          </mxGeometry>
        </mxCell>
        <mxCell id="FPiGIrVevBW5U4w38yxV-68" value="&lt;div&gt;과목개요&lt;/div&gt;" style="shape=partialRectangle;html=1;whiteSpace=wrap;connectable=0;strokeColor=inherit;overflow=hidden;fillColor=none;top=0;left=0;bottom=0;right=0;pointerEvents=1;fontSize=16;" parent="FPiGIrVevBW5U4w38yxV-65" vertex="1">
          <mxGeometry x="240" width="120" height="40" as="geometry">
            <mxRectangle width="120" height="40" as="alternateBounds" />
          </mxGeometry>
        </mxCell>
        <mxCell id="FPiGIrVevBW5U4w38yxV-69" value="교수번호(FK)" style="shape=partialRectangle;html=1;whiteSpace=wrap;connectable=0;strokeColor=inherit;overflow=hidden;fillColor=none;top=0;left=0;bottom=0;right=0;pointerEvents=1;fontSize=16;" parent="FPiGIrVevBW5U4w38yxV-65" vertex="1">
          <mxGeometry x="360" width="120" height="40" as="geometry">
            <mxRectangle width="120" height="40" as="alternateBounds" />
          </mxGeometry>
        </mxCell>
        <mxCell id="FPiGIrVevBW5U4w38yxV-71" value="" style="shape=table;startSize=0;container=1;collapsible=0;childLayout=tableLayout;fontSize=16;" parent="1" vertex="1">
          <mxGeometry x="40" y="280" width="960" height="40" as="geometry" />
        </mxCell>
        <mxCell id="FPiGIrVevBW5U4w38yxV-72" value="" style="shape=tableRow;horizontal=0;startSize=0;swimlaneHead=0;swimlaneBody=0;strokeColor=inherit;top=0;left=0;bottom=0;right=0;collapsible=0;dropTarget=0;fillColor=none;points=[[0,0.5],[1,0.5]];portConstraint=eastwest;fontSize=16;" parent="FPiGIrVevBW5U4w38yxV-71" vertex="1">
          <mxGeometry width="960" height="40" as="geometry" />
        </mxCell>
        <mxCell id="FPiGIrVevBW5U4w38yxV-73" value="&lt;b&gt;&lt;u&gt;학번&lt;/u&gt;&lt;/b&gt;" style="shape=partialRectangle;html=1;whiteSpace=wrap;connectable=0;strokeColor=inherit;overflow=hidden;fillColor=none;top=0;left=0;bottom=0;right=0;pointerEvents=1;fontSize=16;" parent="FPiGIrVevBW5U4w38yxV-72" vertex="1">
          <mxGeometry width="120" height="40" as="geometry">
            <mxRectangle width="120" height="40" as="alternateBounds" />
          </mxGeometry>
        </mxCell>
        <mxCell id="FPiGIrVevBW5U4w38yxV-74" value="이름" style="shape=partialRectangle;html=1;whiteSpace=wrap;connectable=0;strokeColor=inherit;overflow=hidden;fillColor=none;top=0;left=0;bottom=0;right=0;pointerEvents=1;fontSize=16;" parent="FPiGIrVevBW5U4w38yxV-72" vertex="1">
          <mxGeometry x="120" width="120" height="40" as="geometry">
            <mxRectangle width="120" height="40" as="alternateBounds" />
          </mxGeometry>
        </mxCell>
        <mxCell id="FPiGIrVevBW5U4w38yxV-75" value="&lt;div&gt;나이&lt;/div&gt;" style="shape=partialRectangle;html=1;whiteSpace=wrap;connectable=0;strokeColor=inherit;overflow=hidden;fillColor=none;top=0;left=0;bottom=0;right=0;pointerEvents=1;fontSize=16;" parent="FPiGIrVevBW5U4w38yxV-72" vertex="1">
          <mxGeometry x="240" width="120" height="40" as="geometry">
            <mxRectangle width="120" height="40" as="alternateBounds" />
          </mxGeometry>
        </mxCell>
        <mxCell id="FPiGIrVevBW5U4w38yxV-76" value="생년월일" style="shape=partialRectangle;html=1;whiteSpace=wrap;connectable=0;strokeColor=inherit;overflow=hidden;fillColor=none;top=0;left=0;bottom=0;right=0;pointerEvents=1;fontSize=16;" parent="FPiGIrVevBW5U4w38yxV-72" vertex="1">
          <mxGeometry x="360" width="120" height="40" as="geometry">
            <mxRectangle width="120" height="40" as="alternateBounds" />
          </mxGeometry>
        </mxCell>
        <mxCell id="FPiGIrVevBW5U4w38yxV-77" value="주소" style="shape=partialRectangle;html=1;whiteSpace=wrap;connectable=0;strokeColor=inherit;overflow=hidden;fillColor=none;top=0;left=0;bottom=0;right=0;pointerEvents=1;fontSize=16;" parent="FPiGIrVevBW5U4w38yxV-72" vertex="1">
          <mxGeometry x="480" width="120" height="40" as="geometry">
            <mxRectangle width="120" height="40" as="alternateBounds" />
          </mxGeometry>
        </mxCell>
        <mxCell id="FPiGIrVevBW5U4w38yxV-85" value="학과(FK)" style="shape=partialRectangle;html=1;whiteSpace=wrap;connectable=0;strokeColor=inherit;overflow=hidden;fillColor=none;top=0;left=0;bottom=0;right=0;pointerEvents=1;fontSize=16;" parent="FPiGIrVevBW5U4w38yxV-72" vertex="1">
          <mxGeometry x="600" width="120" height="40" as="geometry">
            <mxRectangle width="120" height="40" as="alternateBounds" />
          </mxGeometry>
        </mxCell>
        <mxCell id="FPiGIrVevBW5U4w38yxV-86" value="교수번호(FK)" style="shape=partialRectangle;html=1;whiteSpace=wrap;connectable=0;strokeColor=inherit;overflow=hidden;fillColor=none;top=0;left=0;bottom=0;right=0;pointerEvents=1;fontSize=16;" parent="FPiGIrVevBW5U4w38yxV-72" vertex="1">
          <mxGeometry x="720" width="120" height="40" as="geometry">
            <mxRectangle width="120" height="40" as="alternateBounds" />
          </mxGeometry>
        </mxCell>
        <mxCell id="FPiGIrVevBW5U4w38yxV-87" value="면담시간" style="shape=partialRectangle;html=1;whiteSpace=wrap;connectable=0;strokeColor=inherit;overflow=hidden;fillColor=none;top=0;left=0;bottom=0;right=0;pointerEvents=1;fontSize=16;" parent="FPiGIrVevBW5U4w38yxV-72" vertex="1">
          <mxGeometry x="840" width="120" height="40" as="geometry">
            <mxRectangle width="120" height="40" as="alternateBounds" />
          </mxGeometry>
        </mxCell>
        <mxCell id="FPiGIrVevBW5U4w38yxV-78" value="" style="shape=table;startSize=0;container=1;collapsible=0;childLayout=tableLayout;fontSize=16;" parent="1" vertex="1">
          <mxGeometry x="40" y="440" width="360" height="40" as="geometry" />
        </mxCell>
        <mxCell id="FPiGIrVevBW5U4w38yxV-79" value="" style="shape=tableRow;horizontal=0;startSize=0;swimlaneHead=0;swimlaneBody=0;strokeColor=inherit;top=0;left=0;bottom=0;right=0;collapsible=0;dropTarget=0;fillColor=none;points=[[0,0.5],[1,0.5]];portConstraint=eastwest;fontSize=16;" parent="FPiGIrVevBW5U4w38yxV-78" vertex="1">
          <mxGeometry width="360" height="40" as="geometry" />
        </mxCell>
        <mxCell id="FPiGIrVevBW5U4w38yxV-80" value="&lt;b&gt;&lt;u&gt;수강번호&lt;/u&gt;&lt;/b&gt;" style="shape=partialRectangle;html=1;whiteSpace=wrap;connectable=0;strokeColor=inherit;overflow=hidden;fillColor=none;top=0;left=0;bottom=0;right=0;pointerEvents=1;fontSize=16;" parent="FPiGIrVevBW5U4w38yxV-79" vertex="1">
          <mxGeometry width="120" height="40" as="geometry">
            <mxRectangle width="120" height="40" as="alternateBounds" />
          </mxGeometry>
        </mxCell>
        <mxCell id="FPiGIrVevBW5U4w38yxV-81" value="학번(FK)" style="shape=partialRectangle;html=1;whiteSpace=wrap;connectable=0;strokeColor=inherit;overflow=hidden;fillColor=none;top=0;left=0;bottom=0;right=0;pointerEvents=1;fontSize=16;" parent="FPiGIrVevBW5U4w38yxV-79" vertex="1">
          <mxGeometry x="120" width="120" height="40" as="geometry">
            <mxRectangle width="120" height="40" as="alternateBounds" />
          </mxGeometry>
        </mxCell>
        <mxCell id="FPiGIrVevBW5U4w38yxV-82" value="&lt;div&gt;과목번호(FK)&lt;/div&gt;" style="shape=partialRectangle;html=1;whiteSpace=wrap;connectable=0;strokeColor=inherit;overflow=hidden;fillColor=none;top=0;left=0;bottom=0;right=0;pointerEvents=1;fontSize=16;" parent="FPiGIrVevBW5U4w38yxV-79" vertex="1">
          <mxGeometry x="240" width="120" height="40" as="geometry">
            <mxRectangle width="120" height="40" as="alternateBounds" />
          </mxGeometry>
        </mxCell>
        <mxCell id="FPiGIrVevBW5U4w38yxV-91" value="" style="shape=table;startSize=0;container=1;collapsible=0;childLayout=tableLayout;fontSize=16;" parent="1" vertex="1">
          <mxGeometry x="40" y="520" width="240" height="40" as="geometry" />
        </mxCell>
        <mxCell id="FPiGIrVevBW5U4w38yxV-92" value="" style="shape=tableRow;horizontal=0;startSize=0;swimlaneHead=0;swimlaneBody=0;strokeColor=inherit;top=0;left=0;bottom=0;right=0;collapsible=0;dropTarget=0;fillColor=none;points=[[0,0.5],[1,0.5]];portConstraint=eastwest;fontSize=16;" parent="FPiGIrVevBW5U4w38yxV-91" vertex="1">
          <mxGeometry width="240" height="40" as="geometry" />
        </mxCell>
        <mxCell id="FPiGIrVevBW5U4w38yxV-93" value="&lt;b&gt;&lt;u&gt;섹션번호&lt;/u&gt;&lt;/b&gt;" style="shape=partialRectangle;html=1;whiteSpace=wrap;connectable=0;strokeColor=inherit;overflow=hidden;fillColor=none;top=0;left=0;bottom=0;right=0;pointerEvents=1;fontSize=16;" parent="FPiGIrVevBW5U4w38yxV-92" vertex="1">
          <mxGeometry width="120" height="40" as="geometry">
            <mxRectangle width="120" height="40" as="alternateBounds" />
          </mxGeometry>
        </mxCell>
        <mxCell id="FPiGIrVevBW5U4w38yxV-94" value="&lt;b&gt;&lt;u&gt;과목번호(FK)&lt;/u&gt;&lt;/b&gt;" style="shape=partialRectangle;html=1;whiteSpace=wrap;connectable=0;strokeColor=inherit;overflow=hidden;fillColor=none;top=0;left=0;bottom=0;right=0;pointerEvents=1;fontSize=16;" parent="FPiGIrVevBW5U4w38yxV-92" vertex="1">
          <mxGeometry x="120" width="120" height="40" as="geometry">
            <mxRectangle width="120" height="40" as="alternateBounds" />
          </mxGeometry>
        </mxCell>
        <mxCell id="FPiGIrVevBW5U4w38yxV-97" value="" style="edgeStyle=elbowEdgeStyle;elbow=vertical;endArrow=classic;html=1;curved=0;rounded=0;endSize=8;startSize=8;exitX=0.702;exitY=1.05;exitDx=0;exitDy=0;exitPerimeter=0;entryX=0.125;entryY=0;entryDx=0;entryDy=0;entryPerimeter=0;" parent="1" source="FPiGIrVevBW5U4w38yxV-2" target="FPiGIrVevBW5U4w38yxV-51" edge="1">
          <mxGeometry width="50" height="50" relative="1" as="geometry">
            <mxPoint x="380" y="310" as="sourcePoint" />
            <mxPoint x="100" y="198" as="targetPoint" />
          </mxGeometry>
        </mxCell>
        <mxCell id="FPiGIrVevBW5U4w38yxV-99" value="" style="edgeStyle=elbowEdgeStyle;elbow=vertical;endArrow=classic;html=1;curved=0;rounded=0;endSize=8;startSize=8;exitX=0.81;exitY=0.025;exitDx=0;exitDy=0;exitPerimeter=0;" parent="1" source="FPiGIrVevBW5U4w38yxV-72" edge="1">
          <mxGeometry width="50" height="50" relative="1" as="geometry">
            <mxPoint x="920" y="410" as="sourcePoint" />
            <mxPoint x="99" y="240" as="targetPoint" />
            <Array as="points">
              <mxPoint x="460" y="260" />
            </Array>
          </mxGeometry>
        </mxCell>
        <mxCell id="FPiGIrVevBW5U4w38yxV-103" value="" style="endArrow=none;html=1;rounded=0;exitX=1;exitY=0.5;exitDx=0;exitDy=0;" parent="1" source="FPiGIrVevBW5U4w38yxV-65" edge="1">
          <mxGeometry width="50" height="50" relative="1" as="geometry">
            <mxPoint x="600" y="210" as="sourcePoint" />
            <mxPoint x="1020" y="380" as="targetPoint" />
          </mxGeometry>
        </mxCell>
        <mxCell id="FPiGIrVevBW5U4w38yxV-104" value="" style="endArrow=none;html=1;rounded=0;" parent="1" edge="1">
          <mxGeometry width="50" height="50" relative="1" as="geometry">
            <mxPoint x="1020" y="380" as="sourcePoint" />
            <mxPoint x="1020" y="260" as="targetPoint" />
          </mxGeometry>
        </mxCell>
        <mxCell id="FPiGIrVevBW5U4w38yxV-105" value="" style="endArrow=none;html=1;rounded=0;" parent="1" edge="1">
          <mxGeometry width="50" height="50" relative="1" as="geometry">
            <mxPoint x="790" y="260" as="sourcePoint" />
            <mxPoint x="1020" y="260" as="targetPoint" />
          </mxGeometry>
        </mxCell>
        <mxCell id="FPiGIrVevBW5U4w38yxV-107" value="" style="edgeStyle=elbowEdgeStyle;elbow=vertical;endArrow=classic;html=1;curved=0;rounded=0;endSize=8;startSize=8;exitX=0.688;exitY=0;exitDx=0;exitDy=0;exitPerimeter=0;entryX=0.098;entryY=0;entryDx=0;entryDy=0;entryPerimeter=0;" parent="1" source="FPiGIrVevBW5U4w38yxV-72" target="FPiGIrVevBW5U4w38yxV-2" edge="1">
          <mxGeometry width="50" height="50" relative="1" as="geometry">
            <mxPoint x="610" y="210" as="sourcePoint" />
            <mxPoint x="650" y="160" as="targetPoint" />
            <Array as="points">
              <mxPoint x="390" y="100" />
            </Array>
          </mxGeometry>
        </mxCell>
        <mxCell id="FPiGIrVevBW5U4w38yxV-108" value="" style="edgeStyle=elbowEdgeStyle;elbow=vertical;endArrow=classic;html=1;curved=0;rounded=0;endSize=8;startSize=8;exitX=0.831;exitY=-0.025;exitDx=0;exitDy=0;exitPerimeter=0;entryX=0.123;entryY=1.025;entryDx=0;entryDy=0;entryPerimeter=0;" parent="1" source="FPiGIrVevBW5U4w38yxV-79" target="FPiGIrVevBW5U4w38yxV-65" edge="1">
          <mxGeometry width="50" height="50" relative="1" as="geometry">
            <mxPoint x="600" y="310" as="sourcePoint" />
            <mxPoint x="60" y="420" as="targetPoint" />
          </mxGeometry>
        </mxCell>
        <mxCell id="FPiGIrVevBW5U4w38yxV-110" value="" style="endArrow=none;html=1;rounded=0;exitX=1;exitY=0.5;exitDx=0;exitDy=0;" parent="1" edge="1">
          <mxGeometry width="50" height="50" relative="1" as="geometry">
            <mxPoint x="280" y="539.5" as="sourcePoint" />
            <mxPoint x="420" y="540" as="targetPoint" />
          </mxGeometry>
        </mxCell>
        <mxCell id="FPiGIrVevBW5U4w38yxV-111" value="" style="endArrow=none;html=1;rounded=0;" parent="1" edge="1">
          <mxGeometry width="50" height="50" relative="1" as="geometry">
            <mxPoint x="420" y="540" as="sourcePoint" />
            <mxPoint x="420" y="420" as="targetPoint" />
          </mxGeometry>
        </mxCell>
        <mxCell id="FPiGIrVevBW5U4w38yxV-112" value="" style="endArrow=none;html=1;rounded=0;exitX=1;exitY=0.5;exitDx=0;exitDy=0;" parent="1" edge="1">
          <mxGeometry width="50" height="50" relative="1" as="geometry">
            <mxPoint x="340" y="420" as="sourcePoint" />
            <mxPoint x="420" y="420" as="targetPoint" />
          </mxGeometry>
        </mxCell>
        <mxCell id="FPiGIrVevBW5U4w38yxV-114" value="" style="edgeStyle=elbowEdgeStyle;elbow=vertical;endArrow=classic;html=1;curved=0;rounded=0;endSize=8;startSize=8;entryX=0.064;entryY=1.05;entryDx=0;entryDy=0;entryPerimeter=0;" parent="1" target="FPiGIrVevBW5U4w38yxV-72" edge="1">
          <mxGeometry width="50" height="50" relative="1" as="geometry">
            <mxPoint x="540" y="500" as="sourcePoint" />
            <mxPoint x="650" y="260" as="targetPoint" />
            <Array as="points">
              <mxPoint x="320" y="340" />
            </Array>
          </mxGeometry>
        </mxCell>
        <mxCell id="FPiGIrVevBW5U4w38yxV-115" value="" style="endArrow=none;html=1;rounded=0;" parent="1" edge="1">
          <mxGeometry width="50" height="50" relative="1" as="geometry">
            <mxPoint x="100" y="500" as="sourcePoint" />
            <mxPoint x="540" y="500" as="targetPoint" />
          </mxGeometry>
        </mxCell>
        <mxCell id="FPiGIrVevBW5U4w38yxV-117" value="" style="endArrow=none;html=1;rounded=0;" parent="1" edge="1">
          <mxGeometry width="50" height="50" relative="1" as="geometry">
            <mxPoint x="100" y="500" as="sourcePoint" />
            <mxPoint x="100" y="480" as="targetPoint" />
          </mxGeometry>
        </mxCell>
        <mxCell id="FPiGIrVevBW5U4w38yxV-119" value="&lt;font style=&quot;font-size: 18px;&quot;&gt;교수&lt;/font&gt;" style="text;html=1;align=center;verticalAlign=middle;resizable=0;points=[];autosize=1;strokeColor=none;fillColor=none;" parent="1" vertex="1">
          <mxGeometry x="35" y="170" width="60" height="40" as="geometry" />
        </mxCell>
        <mxCell id="FPiGIrVevBW5U4w38yxV-120" value="&lt;font style=&quot;font-size: 18px;&quot;&gt;학과&lt;/font&gt;" style="text;html=1;align=center;verticalAlign=middle;resizable=0;points=[];autosize=1;strokeColor=none;fillColor=none;" parent="1" vertex="1">
          <mxGeometry x="30" y="90" width="60" height="40" as="geometry" />
        </mxCell>
        <mxCell id="FPiGIrVevBW5U4w38yxV-121" value="&lt;font style=&quot;font-size: 18px;&quot;&gt;수강&lt;/font&gt;" style="text;html=1;align=center;verticalAlign=middle;resizable=0;points=[];autosize=1;strokeColor=none;fillColor=none;" parent="1" vertex="1">
          <mxGeometry x="35" y="410" width="60" height="40" as="geometry" />
        </mxCell>
        <mxCell id="FPiGIrVevBW5U4w38yxV-122" value="&lt;font style=&quot;font-size: 18px;&quot;&gt;과목&lt;/font&gt;" style="text;html=1;align=center;verticalAlign=middle;resizable=0;points=[];autosize=1;strokeColor=none;fillColor=none;" parent="1" vertex="1">
          <mxGeometry x="35" y="330" width="60" height="40" as="geometry" />
        </mxCell>
        <mxCell id="FPiGIrVevBW5U4w38yxV-123" value="&lt;font style=&quot;font-size: 18px;&quot;&gt;학생&lt;/font&gt;" style="text;html=1;align=center;verticalAlign=middle;resizable=0;points=[];autosize=1;strokeColor=none;fillColor=none;" parent="1" vertex="1">
          <mxGeometry x="35" y="250" width="60" height="40" as="geometry" />
        </mxCell>
        <mxCell id="FPiGIrVevBW5U4w38yxV-124" value="&lt;font style=&quot;font-size: 18px;&quot;&gt;섹션&lt;/font&gt;" style="text;html=1;align=center;verticalAlign=middle;resizable=0;points=[];autosize=1;strokeColor=none;fillColor=none;" parent="1" vertex="1">
          <mxGeometry x="35" y="490" width="60" height="40" as="geometry" />
        </mxCell>
        <mxCell id="FPiGIrVevBW5U4w38yxV-126" value="" style="endArrow=none;html=1;rounded=0;" parent="1" edge="1">
          <mxGeometry width="50" height="50" relative="1" as="geometry">
            <mxPoint x="221" y="481" as="sourcePoint" />
            <mxPoint x="221" y="500" as="targetPoint" />
          </mxGeometry>
        </mxCell>
        <mxCell id="5icHoWA6uBAjpLVO7h-e-6" value="사원" style="whiteSpace=wrap;html=1;align=center;" parent="1" vertex="1">
          <mxGeometry x="195" y="780" width="100" height="40" as="geometry" />
        </mxCell>
        <mxCell id="5icHoWA6uBAjpLVO7h-e-7" value="프로젝트" style="whiteSpace=wrap;html=1;align=center;" parent="1" vertex="1">
          <mxGeometry x="555" y="780" width="100" height="40" as="geometry" />
        </mxCell>
        <mxCell id="5icHoWA6uBAjpLVO7h-e-8" value="배정" style="shape=rhombus;perimeter=rhombusPerimeter;whiteSpace=wrap;html=1;align=center;" parent="1" vertex="1">
          <mxGeometry x="365" y="770" width="120" height="60" as="geometry" />
        </mxCell>
        <mxCell id="5icHoWA6uBAjpLVO7h-e-16" value="" style="shape=link;html=1;rounded=0;exitX=0;exitY=0.5;exitDx=0;exitDy=0;entryX=1;entryY=0.5;entryDx=0;entryDy=0;" parent="1" edge="1">
          <mxGeometry relative="1" as="geometry">
            <mxPoint x="555" y="799.6199999999998" as="sourcePoint" />
            <mxPoint x="485" y="799.6199999999998" as="targetPoint" />
          </mxGeometry>
        </mxCell>
        <mxCell id="5icHoWA6uBAjpLVO7h-e-17" value="N" style="resizable=0;html=1;whiteSpace=wrap;align=right;verticalAlign=bottom;" parent="5icHoWA6uBAjpLVO7h-e-16" connectable="0" vertex="1">
          <mxGeometry x="1" relative="1" as="geometry">
            <mxPoint x="40" as="offset" />
          </mxGeometry>
        </mxCell>
        <mxCell id="5icHoWA6uBAjpLVO7h-e-20" value="이름" style="ellipse;whiteSpace=wrap;html=1;align=center;fontStyle=4;" parent="1" vertex="1">
          <mxGeometry x="35" y="780" width="100" height="40" as="geometry" />
        </mxCell>
        <mxCell id="5icHoWA6uBAjpLVO7h-e-21" value="&lt;span style=&quot;border-bottom: 1px dotted&quot;&gt;프로젝트 번호&lt;/span&gt;" style="ellipse;whiteSpace=wrap;html=1;align=center;" parent="1" vertex="1">
          <mxGeometry x="715" y="780" width="100" height="40" as="geometry" />
        </mxCell>
        <mxCell id="5icHoWA6uBAjpLVO7h-e-22" value="특기" style="ellipse;shape=doubleEllipse;margin=3;whiteSpace=wrap;html=1;align=center;" parent="1" vertex="1">
          <mxGeometry x="195" y="890" width="100" height="40" as="geometry" />
        </mxCell>
        <mxCell id="5icHoWA6uBAjpLVO7h-e-23" value="프로젝트 내역" style="ellipse;whiteSpace=wrap;html=1;align=center;" parent="1" vertex="1">
          <mxGeometry x="665" y="850" width="100" height="40" as="geometry" />
        </mxCell>
        <mxCell id="5icHoWA6uBAjpLVO7h-e-24" value="호봉" style="ellipse;whiteSpace=wrap;html=1;align=center;" parent="1" vertex="1">
          <mxGeometry x="85" y="850" width="100" height="40" as="geometry" />
        </mxCell>
        <mxCell id="5icHoWA6uBAjpLVO7h-e-25" value="시작일" style="ellipse;whiteSpace=wrap;html=1;align=center;" parent="1" vertex="1">
          <mxGeometry x="665" y="710" width="100" height="40" as="geometry" />
        </mxCell>
        <mxCell id="5icHoWA6uBAjpLVO7h-e-26" value="생년월일" style="ellipse;whiteSpace=wrap;html=1;align=center;" parent="1" vertex="1">
          <mxGeometry x="85" y="710" width="100" height="40" as="geometry" />
        </mxCell>
        <mxCell id="5icHoWA6uBAjpLVO7h-e-28" value="예상 완료일" style="ellipse;whiteSpace=wrap;html=1;align=center;" parent="1" vertex="1">
          <mxGeometry x="555" y="890" width="100" height="40" as="geometry" />
        </mxCell>
        <mxCell id="5icHoWA6uBAjpLVO7h-e-30" value="" style="endArrow=none;html=1;rounded=0;" parent="1" source="5icHoWA6uBAjpLVO7h-e-23" edge="1">
          <mxGeometry width="50" height="50" relative="1" as="geometry">
            <mxPoint x="555" y="870" as="sourcePoint" />
            <mxPoint x="605" y="820" as="targetPoint" />
          </mxGeometry>
        </mxCell>
        <mxCell id="5icHoWA6uBAjpLVO7h-e-31" value="" style="endArrow=none;html=1;rounded=0;entryX=0;entryY=0.5;entryDx=0;entryDy=0;" parent="1" target="5icHoWA6uBAjpLVO7h-e-21" edge="1">
          <mxGeometry width="50" height="50" relative="1" as="geometry">
            <mxPoint x="655" y="800" as="sourcePoint" />
            <mxPoint x="705" y="750" as="targetPoint" />
          </mxGeometry>
        </mxCell>
        <mxCell id="5icHoWA6uBAjpLVO7h-e-32" value="" style="endArrow=none;html=1;rounded=0;" parent="1" target="5icHoWA6uBAjpLVO7h-e-25" edge="1">
          <mxGeometry width="50" height="50" relative="1" as="geometry">
            <mxPoint x="605" y="780" as="sourcePoint" />
            <mxPoint x="655" y="730" as="targetPoint" />
          </mxGeometry>
        </mxCell>
        <mxCell id="5icHoWA6uBAjpLVO7h-e-33" value="" style="endArrow=none;html=1;rounded=0;exitX=0.5;exitY=0;exitDx=0;exitDy=0;" parent="1" source="5icHoWA6uBAjpLVO7h-e-28" edge="1">
          <mxGeometry width="50" height="50" relative="1" as="geometry">
            <mxPoint x="555" y="870" as="sourcePoint" />
            <mxPoint x="605" y="820" as="targetPoint" />
          </mxGeometry>
        </mxCell>
        <mxCell id="5icHoWA6uBAjpLVO7h-e-34" value="" style="endArrow=none;html=1;rounded=0;exitX=0.5;exitY=0;exitDx=0;exitDy=0;" parent="1" source="5icHoWA6uBAjpLVO7h-e-22" edge="1">
          <mxGeometry width="50" height="50" relative="1" as="geometry">
            <mxPoint x="195" y="870" as="sourcePoint" />
            <mxPoint x="245" y="820" as="targetPoint" />
          </mxGeometry>
        </mxCell>
        <mxCell id="5icHoWA6uBAjpLVO7h-e-35" value="" style="endArrow=none;html=1;rounded=0;" parent="1" source="5icHoWA6uBAjpLVO7h-e-24" edge="1">
          <mxGeometry width="50" height="50" relative="1" as="geometry">
            <mxPoint x="195" y="870" as="sourcePoint" />
            <mxPoint x="245" y="820" as="targetPoint" />
          </mxGeometry>
        </mxCell>
        <mxCell id="5icHoWA6uBAjpLVO7h-e-36" value="" style="endArrow=none;html=1;rounded=0;entryX=0;entryY=0.5;entryDx=0;entryDy=0;" parent="1" target="5icHoWA6uBAjpLVO7h-e-6" edge="1">
          <mxGeometry width="50" height="50" relative="1" as="geometry">
            <mxPoint x="135" y="800" as="sourcePoint" />
            <mxPoint x="185" y="750" as="targetPoint" />
          </mxGeometry>
        </mxCell>
        <mxCell id="5icHoWA6uBAjpLVO7h-e-38" value="" style="endArrow=none;html=1;rounded=0;entryX=1;entryY=1;entryDx=0;entryDy=0;" parent="1" target="5icHoWA6uBAjpLVO7h-e-26" edge="1">
          <mxGeometry width="50" height="50" relative="1" as="geometry">
            <mxPoint x="245" y="780" as="sourcePoint" />
            <mxPoint x="295" y="730" as="targetPoint" />
          </mxGeometry>
        </mxCell>
        <mxCell id="5icHoWA6uBAjpLVO7h-e-44" value="" style="endArrow=none;html=1;rounded=0;" parent="1" edge="1">
          <mxGeometry relative="1" as="geometry">
            <mxPoint x="295" y="799.62" as="sourcePoint" />
            <mxPoint x="365" y="800" as="targetPoint" />
          </mxGeometry>
        </mxCell>
        <mxCell id="5icHoWA6uBAjpLVO7h-e-45" value="M" style="resizable=0;html=1;whiteSpace=wrap;align=right;verticalAlign=bottom;" parent="5icHoWA6uBAjpLVO7h-e-44" connectable="0" vertex="1">
          <mxGeometry x="1" relative="1" as="geometry">
            <mxPoint x="-20" as="offset" />
          </mxGeometry>
        </mxCell>
        <mxCell id="5icHoWA6uBAjpLVO7h-e-46" value="제조업체" style="whiteSpace=wrap;html=1;align=center;" parent="1" vertex="1">
          <mxGeometry x="700" y="1420" width="100" height="40" as="geometry" />
        </mxCell>
        <mxCell id="5icHoWA6uBAjpLVO7h-e-47" value="상품" style="whiteSpace=wrap;html=1;align=center;" parent="1" vertex="1">
          <mxGeometry x="700" y="1160" width="100" height="40" as="geometry" />
        </mxCell>
        <mxCell id="5icHoWA6uBAjpLVO7h-e-48" value="게시글" style="whiteSpace=wrap;html=1;align=center;" parent="1" vertex="1">
          <mxGeometry x="170" y="1420" width="100" height="40" as="geometry" />
        </mxCell>
        <mxCell id="5icHoWA6uBAjpLVO7h-e-49" value="회원" style="whiteSpace=wrap;html=1;align=center;" parent="1" vertex="1">
          <mxGeometry x="170" y="1160" width="100" height="40" as="geometry" />
        </mxCell>
        <mxCell id="5icHoWA6uBAjpLVO7h-e-50" value="주문" style="shape=rhombus;perimeter=rhombusPerimeter;whiteSpace=wrap;html=1;align=center;" parent="1" vertex="1">
          <mxGeometry x="420" y="1150" width="120" height="60" as="geometry" />
        </mxCell>
        <mxCell id="5icHoWA6uBAjpLVO7h-e-51" value="재고량" style="ellipse;whiteSpace=wrap;html=1;align=center;" parent="1" vertex="1">
          <mxGeometry x="850" y="1040" width="100" height="40" as="geometry" />
        </mxCell>
        <mxCell id="5icHoWA6uBAjpLVO7h-e-52" value="&lt;span style=&quot;border-bottom: 1px dotted&quot;&gt;상품번호&lt;/span&gt;" style="ellipse;whiteSpace=wrap;html=1;align=center;" parent="1" vertex="1">
          <mxGeometry x="600" y="1040" width="100" height="40" as="geometry" />
        </mxCell>
        <mxCell id="5icHoWA6uBAjpLVO7h-e-53" value="&lt;span style=&quot;border-bottom: 1px dotted&quot;&gt;회원 아이디&lt;/span&gt;" style="ellipse;whiteSpace=wrap;html=1;align=center;" parent="1" vertex="1">
          <mxGeometry x="270" y="1040" width="100" height="40" as="geometry" />
        </mxCell>
        <mxCell id="5icHoWA6uBAjpLVO7h-e-58" value="등급" style="ellipse;whiteSpace=wrap;html=1;align=center;" parent="1" vertex="1">
          <mxGeometry x="15" y="1210" width="100" height="40" as="geometry" />
        </mxCell>
        <mxCell id="5icHoWA6uBAjpLVO7h-e-59" value="직업" style="ellipse;whiteSpace=wrap;html=1;align=center;" parent="1" vertex="1">
          <mxGeometry x="15" y="1160" width="100" height="40" as="geometry" />
        </mxCell>
        <mxCell id="5icHoWA6uBAjpLVO7h-e-60" value="비밀번호" style="ellipse;whiteSpace=wrap;html=1;align=center;" parent="1" vertex="1">
          <mxGeometry x="160" y="1040" width="100" height="40" as="geometry" />
        </mxCell>
        <mxCell id="5icHoWA6uBAjpLVO7h-e-61" value="이름" style="ellipse;whiteSpace=wrap;html=1;align=center;" parent="1" vertex="1">
          <mxGeometry x="60" y="1060" width="100" height="40" as="geometry" />
        </mxCell>
        <mxCell id="5icHoWA6uBAjpLVO7h-e-62" value="나이" style="ellipse;whiteSpace=wrap;html=1;align=center;" parent="1" vertex="1">
          <mxGeometry x="15" y="1110" width="100" height="40" as="geometry" />
        </mxCell>
        <mxCell id="5icHoWA6uBAjpLVO7h-e-63" value="적립금" style="ellipse;whiteSpace=wrap;html=1;align=center;" parent="1" vertex="1">
          <mxGeometry x="40" y="1260" width="100" height="40" as="geometry" />
        </mxCell>
        <mxCell id="5icHoWA6uBAjpLVO7h-e-68" value="" style="endArrow=none;html=1;rounded=0;" parent="1" source="5icHoWA6uBAjpLVO7h-e-49" target="5icHoWA6uBAjpLVO7h-e-62" edge="1">
          <mxGeometry width="50" height="50" relative="1" as="geometry">
            <mxPoint x="170" y="1180" as="sourcePoint" />
            <mxPoint x="150" y="1240" as="targetPoint" />
          </mxGeometry>
        </mxCell>
        <mxCell id="5icHoWA6uBAjpLVO7h-e-69" value="" style="endArrow=none;html=1;rounded=0;" parent="1" source="5icHoWA6uBAjpLVO7h-e-49" target="5icHoWA6uBAjpLVO7h-e-61" edge="1">
          <mxGeometry width="50" height="50" relative="1" as="geometry">
            <mxPoint x="170" y="1270" as="sourcePoint" />
            <mxPoint x="220" y="1220" as="targetPoint" />
          </mxGeometry>
        </mxCell>
        <mxCell id="5icHoWA6uBAjpLVO7h-e-70" value="" style="endArrow=none;html=1;rounded=0;" parent="1" source="5icHoWA6uBAjpLVO7h-e-49" target="5icHoWA6uBAjpLVO7h-e-60" edge="1">
          <mxGeometry width="50" height="50" relative="1" as="geometry">
            <mxPoint x="220" y="1160" as="sourcePoint" />
            <mxPoint x="185" y="1210" as="targetPoint" />
          </mxGeometry>
        </mxCell>
        <mxCell id="5icHoWA6uBAjpLVO7h-e-71" value="" style="endArrow=none;html=1;rounded=0;" parent="1" source="5icHoWA6uBAjpLVO7h-e-59" target="5icHoWA6uBAjpLVO7h-e-49" edge="1">
          <mxGeometry width="50" height="50" relative="1" as="geometry">
            <mxPoint x="230" y="1281" as="sourcePoint" />
            <mxPoint x="170" y="1180" as="targetPoint" />
          </mxGeometry>
        </mxCell>
        <mxCell id="5icHoWA6uBAjpLVO7h-e-72" value="" style="endArrow=none;html=1;rounded=0;" parent="1" source="5icHoWA6uBAjpLVO7h-e-49" target="5icHoWA6uBAjpLVO7h-e-53" edge="1">
          <mxGeometry width="50" height="50" relative="1" as="geometry">
            <mxPoint x="220" y="1160" as="sourcePoint" />
            <mxPoint x="245" y="1103" as="targetPoint" />
          </mxGeometry>
        </mxCell>
        <mxCell id="5icHoWA6uBAjpLVO7h-e-73" value="" style="endArrow=none;html=1;rounded=0;" parent="1" source="5icHoWA6uBAjpLVO7h-e-58" target="5icHoWA6uBAjpLVO7h-e-49" edge="1">
          <mxGeometry width="50" height="50" relative="1" as="geometry">
            <mxPoint x="200" y="1240" as="sourcePoint" />
            <mxPoint x="220" y="1170" as="targetPoint" />
          </mxGeometry>
        </mxCell>
        <mxCell id="5icHoWA6uBAjpLVO7h-e-74" value="" style="endArrow=none;html=1;rounded=0;" parent="1" source="5icHoWA6uBAjpLVO7h-e-49" target="5icHoWA6uBAjpLVO7h-e-63" edge="1">
          <mxGeometry width="50" height="50" relative="1" as="geometry">
            <mxPoint x="240" y="1180" as="sourcePoint" />
            <mxPoint x="260" y="1110" as="targetPoint" />
          </mxGeometry>
        </mxCell>
        <mxCell id="5icHoWA6uBAjpLVO7h-e-75" value="위치" style="ellipse;whiteSpace=wrap;html=1;align=center;" parent="1" vertex="1">
          <mxGeometry x="730" y="1510" width="100" height="40" as="geometry" />
        </mxCell>
        <mxCell id="5icHoWA6uBAjpLVO7h-e-76" value="정보" style="ellipse;whiteSpace=wrap;html=1;align=center;" parent="1" vertex="1">
          <mxGeometry x="850" y="1110" width="100" height="40" as="geometry" />
        </mxCell>
        <mxCell id="5icHoWA6uBAjpLVO7h-e-77" value="단가" style="ellipse;whiteSpace=wrap;html=1;align=center;" parent="1" vertex="1">
          <mxGeometry x="850" y="1180" width="100" height="40" as="geometry" />
        </mxCell>
        <mxCell id="5icHoWA6uBAjpLVO7h-e-78" value="상품명" style="ellipse;whiteSpace=wrap;html=1;align=center;" parent="1" vertex="1">
          <mxGeometry x="720" y="1040" width="100" height="40" as="geometry" />
        </mxCell>
        <mxCell id="5icHoWA6uBAjpLVO7h-e-79" value="" style="endArrow=none;html=1;rounded=0;" parent="1" source="5icHoWA6uBAjpLVO7h-e-47" target="5icHoWA6uBAjpLVO7h-e-77" edge="1">
          <mxGeometry width="50" height="50" relative="1" as="geometry">
            <mxPoint x="620" y="1130" as="sourcePoint" />
            <mxPoint x="640" y="1060" as="targetPoint" />
          </mxGeometry>
        </mxCell>
        <mxCell id="5icHoWA6uBAjpLVO7h-e-80" value="" style="endArrow=none;html=1;rounded=0;" parent="1" source="5icHoWA6uBAjpLVO7h-e-47" target="5icHoWA6uBAjpLVO7h-e-76" edge="1">
          <mxGeometry width="50" height="50" relative="1" as="geometry">
            <mxPoint x="630" y="1140" as="sourcePoint" />
            <mxPoint x="650" y="1070" as="targetPoint" />
          </mxGeometry>
        </mxCell>
        <mxCell id="5icHoWA6uBAjpLVO7h-e-81" value="" style="endArrow=none;html=1;rounded=0;" parent="1" source="5icHoWA6uBAjpLVO7h-e-47" target="5icHoWA6uBAjpLVO7h-e-51" edge="1">
          <mxGeometry width="50" height="50" relative="1" as="geometry">
            <mxPoint x="640" y="1150" as="sourcePoint" />
            <mxPoint x="660" y="1080" as="targetPoint" />
          </mxGeometry>
        </mxCell>
        <mxCell id="5icHoWA6uBAjpLVO7h-e-82" value="" style="endArrow=none;html=1;rounded=0;" parent="1" source="5icHoWA6uBAjpLVO7h-e-78" target="5icHoWA6uBAjpLVO7h-e-47" edge="1">
          <mxGeometry width="50" height="50" relative="1" as="geometry">
            <mxPoint x="849.9989360201304" y="1116.4036879932896" as="sourcePoint" />
            <mxPoint x="768.41" y="1143.6" as="targetPoint" />
          </mxGeometry>
        </mxCell>
        <mxCell id="5icHoWA6uBAjpLVO7h-e-83" value="" style="endArrow=none;html=1;rounded=0;exitX=0.5;exitY=0;exitDx=0;exitDy=0;" parent="1" source="5icHoWA6uBAjpLVO7h-e-47" target="5icHoWA6uBAjpLVO7h-e-52" edge="1">
          <mxGeometry width="50" height="50" relative="1" as="geometry">
            <mxPoint x="660" y="1170" as="sourcePoint" />
            <mxPoint x="680" y="1100" as="targetPoint" />
          </mxGeometry>
        </mxCell>
        <mxCell id="5icHoWA6uBAjpLVO7h-e-85" value="" style="endArrow=none;html=1;rounded=0;" parent="1" source="5icHoWA6uBAjpLVO7h-e-50" target="5icHoWA6uBAjpLVO7h-e-47" edge="1">
          <mxGeometry relative="1" as="geometry">
            <mxPoint x="640" y="1180" as="sourcePoint" />
            <mxPoint x="650" y="1230" as="targetPoint" />
          </mxGeometry>
        </mxCell>
        <mxCell id="5icHoWA6uBAjpLVO7h-e-86" value="M" style="resizable=0;html=1;whiteSpace=wrap;align=right;verticalAlign=bottom;" parent="5icHoWA6uBAjpLVO7h-e-85" connectable="0" vertex="1">
          <mxGeometry x="1" relative="1" as="geometry">
            <mxPoint x="-70" as="offset" />
          </mxGeometry>
        </mxCell>
        <mxCell id="5icHoWA6uBAjpLVO7h-e-87" value="" style="endArrow=none;html=1;rounded=0;" parent="1" source="5icHoWA6uBAjpLVO7h-e-49" target="5icHoWA6uBAjpLVO7h-e-50" edge="1">
          <mxGeometry relative="1" as="geometry">
            <mxPoint x="280" y="1210" as="sourcePoint" />
            <mxPoint x="440" y="1210" as="targetPoint" />
          </mxGeometry>
        </mxCell>
        <mxCell id="5icHoWA6uBAjpLVO7h-e-88" value="N" style="resizable=0;html=1;whiteSpace=wrap;align=right;verticalAlign=bottom;" parent="5icHoWA6uBAjpLVO7h-e-87" connectable="0" vertex="1">
          <mxGeometry x="1" relative="1" as="geometry">
            <mxPoint x="-71" as="offset" />
          </mxGeometry>
        </mxCell>
        <mxCell id="5icHoWA6uBAjpLVO7h-e-89" value="주문수량" style="ellipse;whiteSpace=wrap;html=1;align=center;" parent="1" vertex="1">
          <mxGeometry x="370" y="1300" width="100" height="40" as="geometry" />
        </mxCell>
        <mxCell id="5icHoWA6uBAjpLVO7h-e-90" value="주문일자 정보" style="ellipse;whiteSpace=wrap;html=1;align=center;" parent="1" vertex="1">
          <mxGeometry x="550" y="1240" width="100" height="40" as="geometry" />
        </mxCell>
        <mxCell id="5icHoWA6uBAjpLVO7h-e-91" value="배송지" style="ellipse;whiteSpace=wrap;html=1;align=center;" parent="1" vertex="1">
          <mxGeometry x="490" y="1300" width="100" height="40" as="geometry" />
        </mxCell>
        <mxCell id="5icHoWA6uBAjpLVO7h-e-92" value="전화번호" style="ellipse;whiteSpace=wrap;html=1;align=center;" parent="1" vertex="1">
          <mxGeometry x="850" y="1510" width="100" height="40" as="geometry" />
        </mxCell>
        <mxCell id="5icHoWA6uBAjpLVO7h-e-93" value="주문번호" style="ellipse;whiteSpace=wrap;html=1;align=center;fontStyle=4;" parent="1" vertex="1">
          <mxGeometry x="314" y="1240" width="100" height="40" as="geometry" />
        </mxCell>
        <mxCell id="5icHoWA6uBAjpLVO7h-e-95" value="" style="endArrow=none;html=1;rounded=0;" parent="1" source="5icHoWA6uBAjpLVO7h-e-93" target="5icHoWA6uBAjpLVO7h-e-50" edge="1">
          <mxGeometry width="50" height="50" relative="1" as="geometry">
            <mxPoint x="270" y="1260" as="sourcePoint" />
            <mxPoint x="320" y="1210" as="targetPoint" />
          </mxGeometry>
        </mxCell>
        <mxCell id="5icHoWA6uBAjpLVO7h-e-96" value="" style="endArrow=none;html=1;rounded=0;" parent="1" source="5icHoWA6uBAjpLVO7h-e-89" target="5icHoWA6uBAjpLVO7h-e-50" edge="1">
          <mxGeometry width="50" height="50" relative="1" as="geometry">
            <mxPoint x="490" y="1280" as="sourcePoint" />
            <mxPoint x="490" y="1220" as="targetPoint" />
          </mxGeometry>
        </mxCell>
        <mxCell id="5icHoWA6uBAjpLVO7h-e-97" value="" style="endArrow=none;html=1;rounded=0;" parent="1" source="5icHoWA6uBAjpLVO7h-e-91" target="5icHoWA6uBAjpLVO7h-e-50" edge="1">
          <mxGeometry width="50" height="50" relative="1" as="geometry">
            <mxPoint x="500" y="1290" as="sourcePoint" />
            <mxPoint x="500" y="1230" as="targetPoint" />
          </mxGeometry>
        </mxCell>
        <mxCell id="5icHoWA6uBAjpLVO7h-e-98" value="" style="endArrow=none;html=1;rounded=0;" parent="1" source="5icHoWA6uBAjpLVO7h-e-90" target="5icHoWA6uBAjpLVO7h-e-50" edge="1">
          <mxGeometry width="50" height="50" relative="1" as="geometry">
            <mxPoint x="510" y="1300" as="sourcePoint" />
            <mxPoint x="510" y="1240" as="targetPoint" />
          </mxGeometry>
        </mxCell>
        <mxCell id="5icHoWA6uBAjpLVO7h-e-99" value="작성" style="shape=rhombus;perimeter=rhombusPerimeter;whiteSpace=wrap;html=1;align=center;" parent="1" vertex="1">
          <mxGeometry x="160" y="1280" width="120" height="60" as="geometry" />
        </mxCell>
        <mxCell id="5icHoWA6uBAjpLVO7h-e-100" value="공급" style="shape=rhombus;perimeter=rhombusPerimeter;whiteSpace=wrap;html=1;align=center;" parent="1" vertex="1">
          <mxGeometry x="690" y="1280" width="120" height="60" as="geometry" />
        </mxCell>
        <mxCell id="5icHoWA6uBAjpLVO7h-e-101" value="" style="endArrow=none;html=1;rounded=0;" parent="1" source="5icHoWA6uBAjpLVO7h-e-106" target="5icHoWA6uBAjpLVO7h-e-46" edge="1">
          <mxGeometry width="50" height="50" relative="1" as="geometry">
            <mxPoint x="610" y="1290" as="sourcePoint" />
            <mxPoint x="660" y="1240" as="targetPoint" />
          </mxGeometry>
        </mxCell>
        <mxCell id="5icHoWA6uBAjpLVO7h-e-102" value="" style="endArrow=none;html=1;rounded=0;" parent="1" source="5icHoWA6uBAjpLVO7h-e-75" target="5icHoWA6uBAjpLVO7h-e-46" edge="1">
          <mxGeometry width="50" height="50" relative="1" as="geometry">
            <mxPoint x="610" y="1290" as="sourcePoint" />
            <mxPoint x="660" y="1240" as="targetPoint" />
          </mxGeometry>
        </mxCell>
        <mxCell id="5icHoWA6uBAjpLVO7h-e-103" value="" style="endArrow=none;html=1;rounded=0;" parent="1" source="5icHoWA6uBAjpLVO7h-e-46" target="5icHoWA6uBAjpLVO7h-e-92" edge="1">
          <mxGeometry width="50" height="50" relative="1" as="geometry">
            <mxPoint x="610" y="1290" as="sourcePoint" />
            <mxPoint x="660" y="1240" as="targetPoint" />
          </mxGeometry>
        </mxCell>
        <mxCell id="5icHoWA6uBAjpLVO7h-e-104" value="" style="endArrow=none;html=1;rounded=0;" parent="1" source="5icHoWA6uBAjpLVO7h-e-46" target="5icHoWA6uBAjpLVO7h-e-105" edge="1">
          <mxGeometry width="50" height="50" relative="1" as="geometry">
            <mxPoint x="640" y="1305" as="sourcePoint" />
            <mxPoint x="690" y="1255" as="targetPoint" />
          </mxGeometry>
        </mxCell>
        <mxCell id="5icHoWA6uBAjpLVO7h-e-105" value="제조업체명" style="ellipse;whiteSpace=wrap;html=1;align=center;fontStyle=4;" parent="1" vertex="1">
          <mxGeometry x="850" y="1420" width="100" height="40" as="geometry" />
        </mxCell>
        <mxCell id="5icHoWA6uBAjpLVO7h-e-106" value="담당자 정보" style="ellipse;whiteSpace=wrap;html=1;align=center;" parent="1" vertex="1">
          <mxGeometry x="610" y="1510" width="100" height="40" as="geometry" />
        </mxCell>
        <mxCell id="5icHoWA6uBAjpLVO7h-e-108" value="공급량 정보" style="ellipse;whiteSpace=wrap;html=1;align=center;" parent="1" vertex="1">
          <mxGeometry x="850" y="1330" width="100" height="40" as="geometry" />
        </mxCell>
        <mxCell id="5icHoWA6uBAjpLVO7h-e-109" value="공급일자" style="ellipse;whiteSpace=wrap;html=1;align=center;" parent="1" vertex="1">
          <mxGeometry x="850" y="1260" width="100" height="40" as="geometry" />
        </mxCell>
        <mxCell id="5icHoWA6uBAjpLVO7h-e-110" value="" style="endArrow=none;html=1;rounded=0;" parent="1" source="5icHoWA6uBAjpLVO7h-e-108" target="5icHoWA6uBAjpLVO7h-e-100" edge="1">
          <mxGeometry width="50" height="50" relative="1" as="geometry">
            <mxPoint x="670" y="1340" as="sourcePoint" />
            <mxPoint x="720" y="1290" as="targetPoint" />
          </mxGeometry>
        </mxCell>
        <mxCell id="5icHoWA6uBAjpLVO7h-e-111" value="" style="endArrow=none;html=1;rounded=0;" parent="1" source="5icHoWA6uBAjpLVO7h-e-109" target="5icHoWA6uBAjpLVO7h-e-100" edge="1">
          <mxGeometry width="50" height="50" relative="1" as="geometry">
            <mxPoint x="670" y="1340" as="sourcePoint" />
            <mxPoint x="720" y="1290" as="targetPoint" />
          </mxGeometry>
        </mxCell>
        <mxCell id="5icHoWA6uBAjpLVO7h-e-112" value="" style="endArrow=none;html=1;rounded=0;" parent="1" source="5icHoWA6uBAjpLVO7h-e-46" target="5icHoWA6uBAjpLVO7h-e-100" edge="1">
          <mxGeometry relative="1" as="geometry">
            <mxPoint x="580" y="1360" as="sourcePoint" />
            <mxPoint x="740" y="1360" as="targetPoint" />
          </mxGeometry>
        </mxCell>
        <mxCell id="5icHoWA6uBAjpLVO7h-e-113" value="1" style="resizable=0;html=1;whiteSpace=wrap;align=right;verticalAlign=bottom;" parent="5icHoWA6uBAjpLVO7h-e-112" connectable="0" vertex="1">
          <mxGeometry x="1" relative="1" as="geometry">
            <mxPoint y="50" as="offset" />
          </mxGeometry>
        </mxCell>
        <mxCell id="5icHoWA6uBAjpLVO7h-e-114" value="" style="shape=link;html=1;rounded=0;" parent="1" source="5icHoWA6uBAjpLVO7h-e-47" target="5icHoWA6uBAjpLVO7h-e-100" edge="1">
          <mxGeometry relative="1" as="geometry">
            <mxPoint x="620" y="1330" as="sourcePoint" />
            <mxPoint x="780" y="1330" as="targetPoint" />
          </mxGeometry>
        </mxCell>
        <mxCell id="5icHoWA6uBAjpLVO7h-e-115" value="N" style="resizable=0;html=1;whiteSpace=wrap;align=right;verticalAlign=bottom;" parent="5icHoWA6uBAjpLVO7h-e-114" connectable="0" vertex="1">
          <mxGeometry x="1" relative="1" as="geometry">
            <mxPoint y="-30" as="offset" />
          </mxGeometry>
        </mxCell>
        <mxCell id="5icHoWA6uBAjpLVO7h-e-116" value="글번호" style="ellipse;whiteSpace=wrap;html=1;align=center;fontStyle=4;" parent="1" vertex="1">
          <mxGeometry x="15" y="1420" width="100" height="40" as="geometry" />
        </mxCell>
        <mxCell id="5icHoWA6uBAjpLVO7h-e-117" value="글제목" style="ellipse;whiteSpace=wrap;html=1;align=center;" parent="1" vertex="1">
          <mxGeometry x="15" y="1490" width="100" height="40" as="geometry" />
        </mxCell>
        <mxCell id="5icHoWA6uBAjpLVO7h-e-118" value="글내용" style="ellipse;whiteSpace=wrap;html=1;align=center;" parent="1" vertex="1">
          <mxGeometry x="140" y="1490" width="100" height="40" as="geometry" />
        </mxCell>
        <mxCell id="5icHoWA6uBAjpLVO7h-e-119" value="작성일자 정보" style="ellipse;whiteSpace=wrap;html=1;align=center;" parent="1" vertex="1">
          <mxGeometry x="260" y="1490" width="100" height="40" as="geometry" />
        </mxCell>
        <mxCell id="5icHoWA6uBAjpLVO7h-e-120" value="" style="endArrow=none;html=1;rounded=0;" parent="1" source="5icHoWA6uBAjpLVO7h-e-116" target="5icHoWA6uBAjpLVO7h-e-48" edge="1">
          <mxGeometry width="50" height="50" relative="1" as="geometry">
            <mxPoint x="784" y="1520" as="sourcePoint" />
            <mxPoint x="767" y="1470" as="targetPoint" />
          </mxGeometry>
        </mxCell>
        <mxCell id="5icHoWA6uBAjpLVO7h-e-121" value="" style="endArrow=none;html=1;rounded=0;" parent="1" source="5icHoWA6uBAjpLVO7h-e-117" target="5icHoWA6uBAjpLVO7h-e-48" edge="1">
          <mxGeometry width="50" height="50" relative="1" as="geometry">
            <mxPoint x="794" y="1530" as="sourcePoint" />
            <mxPoint x="777" y="1480" as="targetPoint" />
          </mxGeometry>
        </mxCell>
        <mxCell id="5icHoWA6uBAjpLVO7h-e-122" value="" style="endArrow=none;html=1;rounded=0;" parent="1" source="5icHoWA6uBAjpLVO7h-e-118" target="5icHoWA6uBAjpLVO7h-e-48" edge="1">
          <mxGeometry width="50" height="50" relative="1" as="geometry">
            <mxPoint x="804" y="1540" as="sourcePoint" />
            <mxPoint x="787" y="1490" as="targetPoint" />
          </mxGeometry>
        </mxCell>
        <mxCell id="5icHoWA6uBAjpLVO7h-e-123" value="" style="endArrow=none;html=1;rounded=0;" parent="1" source="5icHoWA6uBAjpLVO7h-e-119" target="5icHoWA6uBAjpLVO7h-e-48" edge="1">
          <mxGeometry width="50" height="50" relative="1" as="geometry">
            <mxPoint x="814" y="1550" as="sourcePoint" />
            <mxPoint x="797" y="1500" as="targetPoint" />
          </mxGeometry>
        </mxCell>
        <mxCell id="5icHoWA6uBAjpLVO7h-e-124" value="" style="endArrow=none;html=1;rounded=0;" parent="1" source="5icHoWA6uBAjpLVO7h-e-49" target="5icHoWA6uBAjpLVO7h-e-99" edge="1">
          <mxGeometry relative="1" as="geometry">
            <mxPoint x="330" y="1390" as="sourcePoint" />
            <mxPoint x="390" y="1430" as="targetPoint" />
          </mxGeometry>
        </mxCell>
        <mxCell id="5icHoWA6uBAjpLVO7h-e-125" value="1" style="resizable=0;html=1;whiteSpace=wrap;align=right;verticalAlign=bottom;" parent="5icHoWA6uBAjpLVO7h-e-124" connectable="0" vertex="1">
          <mxGeometry x="1" relative="1" as="geometry">
            <mxPoint y="-30" as="offset" />
          </mxGeometry>
        </mxCell>
        <mxCell id="5icHoWA6uBAjpLVO7h-e-126" value="" style="shape=link;html=1;rounded=0;" parent="1" source="5icHoWA6uBAjpLVO7h-e-99" target="5icHoWA6uBAjpLVO7h-e-48" edge="1">
          <mxGeometry relative="1" as="geometry">
            <mxPoint x="400" y="1370" as="sourcePoint" />
            <mxPoint x="560" y="1370" as="targetPoint" />
          </mxGeometry>
        </mxCell>
        <mxCell id="5icHoWA6uBAjpLVO7h-e-127" value="N" style="resizable=0;html=1;whiteSpace=wrap;align=right;verticalAlign=bottom;" parent="5icHoWA6uBAjpLVO7h-e-126" connectable="0" vertex="1">
          <mxGeometry x="1" relative="1" as="geometry" />
        </mxCell>
      </root>
    </mxGraphModel>
  </diagram>
</mxfile>
